<mxfile host="Electron" agent="Mozilla/5.0 (X11; Linux x86_64) AppleWebKit/537.36 (KHTML, like Gecko) draw.io/28.1.2 Chrome/138.0.7204.243 Electron/37.4.0 Safari/537.36" version="28.1.2" pages="2">
  <diagram name="Page-1" id="qyKOhX7wKubJx3A1yhwW">
    <mxGraphModel dx="1141" dy="690" grid="1" gridSize="10" guides="1" tooltips="1" connect="1" arrows="1" fold="1" page="1" pageScale="1" pageWidth="827" pageHeight="1169" math="1" shadow="0">
      <root>
        <mxCell id="0" />
        <mxCell id="1" parent="0" />
        <mxCell id="rzhAfjj5DbKfYVlqXlJ3-1" value="&lt;div&gt;&lt;font style=&quot;font-size: 15px;&quot;&gt;\(X\)&lt;/font&gt;&lt;/div&gt;" style="rounded=0;whiteSpace=wrap;html=1;fillColor=#dae8fc;strokeColor=#6c8ebf;" parent="1" vertex="1">
          <mxGeometry x="320" y="90" width="120" height="60" as="geometry" />
        </mxCell>
        <mxCell id="rzhAfjj5DbKfYVlqXlJ3-5" value="" style="edgeStyle=orthogonalEdgeStyle;rounded=0;orthogonalLoop=1;jettySize=auto;html=1;exitX=0.5;exitY=1;exitDx=0;exitDy=0;" parent="1" source="ZXvm5cAhcbiVR249xv_J-1" target="rzhAfjj5DbKfYVlqXlJ3-3" edge="1">
          <mxGeometry relative="1" as="geometry">
            <mxPoint x="380" y="424" as="sourcePoint" />
          </mxGeometry>
        </mxCell>
        <mxCell id="gshfcQeMo9viiWqzpoU_-51" style="edgeStyle=orthogonalEdgeStyle;rounded=0;orthogonalLoop=1;jettySize=auto;html=1;entryX=0;entryY=0.5;entryDx=0;entryDy=0;" parent="1" source="rzhAfjj5DbKfYVlqXlJ3-3" target="gshfcQeMo9viiWqzpoU_-39" edge="1">
          <mxGeometry relative="1" as="geometry" />
        </mxCell>
        <mxCell id="SKo15fLE6GQcyllnIHAm-7" value="" style="edgeStyle=orthogonalEdgeStyle;rounded=0;orthogonalLoop=1;jettySize=auto;html=1;entryX=0.5;entryY=0;entryDx=0;entryDy=0;" parent="1" source="rzhAfjj5DbKfYVlqXlJ3-3" target="ZXvm5cAhcbiVR249xv_J-4" edge="1">
          <mxGeometry relative="1" as="geometry">
            <mxPoint x="410" y="549" as="targetPoint" />
          </mxGeometry>
        </mxCell>
        <mxCell id="rzhAfjj5DbKfYVlqXlJ3-3" value="$$\hat{X}_{flat}$$" style="rounded=1;whiteSpace=wrap;html=1;fontSize=15;" parent="1" vertex="1">
          <mxGeometry x="346" y="458" width="70" height="40" as="geometry" />
        </mxCell>
        <mxCell id="gshfcQeMo9viiWqzpoU_-1" value="$$(n \times M&amp;nbsp;\times&amp;nbsp;p)$$" style="text;html=1;align=center;verticalAlign=middle;whiteSpace=wrap;rounded=0;fillColor=none;strokeColor=#b85450;gradientColor=none;fillStyle=auto;shadow=0;fontSize=10;" parent="1" vertex="1">
          <mxGeometry x="440" y="105" width="81" height="35" as="geometry" />
        </mxCell>
        <mxCell id="gshfcQeMo9viiWqzpoU_-5" value="&lt;div&gt;Input Covariates&lt;/div&gt;&amp;nbsp;measured at baseline" style="text;html=1;align=center;verticalAlign=middle;whiteSpace=wrap;rounded=0;" parent="1" vertex="1">
          <mxGeometry x="310" y="62" width="140" height="30" as="geometry" />
        </mxCell>
        <mxCell id="gshfcQeMo9viiWqzpoU_-9" value="" style="endArrow=none;html=1;rounded=0;entryX=0.5;entryY=1;entryDx=0;entryDy=0;exitX=0.5;exitY=0;exitDx=0;exitDy=0;" parent="1" source="gshfcQeMo9viiWqzpoU_-35" target="rzhAfjj5DbKfYVlqXlJ3-1" edge="1">
          <mxGeometry width="50" height="50" relative="1" as="geometry">
            <mxPoint x="320" y="330" as="sourcePoint" />
            <mxPoint x="370" y="280" as="targetPoint" />
          </mxGeometry>
        </mxCell>
        <mxCell id="gshfcQeMo9viiWqzpoU_-25" value="" style="shape=table;startSize=0;container=1;collapsible=0;childLayout=tableLayout;fontSize=11;fillColor=none;strokeColor=default;perimeterSpacing=0;strokeWidth=0.5;opacity=80;" parent="1" vertex="1">
          <mxGeometry x="12.5" y="79" width="140" height="93" as="geometry" />
        </mxCell>
        <mxCell id="gshfcQeMo9viiWqzpoU_-26" value="" style="shape=tableRow;horizontal=0;startSize=0;swimlaneHead=0;swimlaneBody=0;strokeColor=inherit;top=0;left=0;bottom=0;right=0;collapsible=0;dropTarget=0;fillColor=none;points=[[0,0.5],[1,0.5]];portConstraint=eastwest;fontSize=16;" parent="gshfcQeMo9viiWqzpoU_-25" vertex="1">
          <mxGeometry width="140" height="20" as="geometry" />
        </mxCell>
        <mxCell id="gshfcQeMo9viiWqzpoU_-27" value="\(n\): sample size" style="shape=partialRectangle;html=1;whiteSpace=wrap;connectable=0;strokeColor=inherit;overflow=hidden;fillColor=none;top=0;left=0;bottom=0;right=0;pointerEvents=1;fontSize=12;align=left;spacingLeft=5;" parent="gshfcQeMo9viiWqzpoU_-26" vertex="1">
          <mxGeometry width="140" height="20" as="geometry">
            <mxRectangle width="140" height="20" as="alternateBounds" />
          </mxGeometry>
        </mxCell>
        <mxCell id="gshfcQeMo9viiWqzpoU_-28" value="" style="shape=tableRow;horizontal=0;startSize=0;swimlaneHead=0;swimlaneBody=0;strokeColor=inherit;top=0;left=0;bottom=0;right=0;collapsible=0;dropTarget=0;fillColor=none;points=[[0,0.5],[1,0.5]];portConstraint=eastwest;fontSize=16;" parent="gshfcQeMo9viiWqzpoU_-25" vertex="1">
          <mxGeometry y="20" width="140" height="18" as="geometry" />
        </mxCell>
        <mxCell id="gshfcQeMo9viiWqzpoU_-29" value="\(p\): # covariates" style="shape=partialRectangle;html=1;whiteSpace=wrap;connectable=0;strokeColor=inherit;overflow=hidden;fillColor=none;top=0;left=0;bottom=0;right=0;pointerEvents=1;fontSize=12;align=left;spacingLeft=5;" parent="gshfcQeMo9viiWqzpoU_-28" vertex="1">
          <mxGeometry width="140" height="18" as="geometry">
            <mxRectangle width="140" height="18" as="alternateBounds" />
          </mxGeometry>
        </mxCell>
        <mxCell id="gshfcQeMo9viiWqzpoU_-30" value="" style="shape=tableRow;horizontal=0;startSize=0;swimlaneHead=0;swimlaneBody=0;strokeColor=inherit;top=0;left=0;bottom=0;right=0;collapsible=0;dropTarget=0;fillColor=none;points=[[0,0.5],[1,0.5]];portConstraint=eastwest;fontSize=16;" parent="gshfcQeMo9viiWqzpoU_-25" vertex="1">
          <mxGeometry y="38" width="140" height="19" as="geometry" />
        </mxCell>
        <mxCell id="gshfcQeMo9viiWqzpoU_-31" value="\(M\): # measurements" style="shape=partialRectangle;html=1;whiteSpace=wrap;connectable=0;strokeColor=inherit;overflow=hidden;fillColor=none;top=0;left=0;bottom=0;right=0;pointerEvents=1;fontSize=12;align=left;spacingLeft=5;" parent="gshfcQeMo9viiWqzpoU_-30" vertex="1">
          <mxGeometry width="140" height="19" as="geometry">
            <mxRectangle width="140" height="19" as="alternateBounds" />
          </mxGeometry>
        </mxCell>
        <mxCell id="gshfcQeMo9viiWqzpoU_-32" style="shape=tableRow;horizontal=0;startSize=0;swimlaneHead=0;swimlaneBody=0;strokeColor=inherit;top=0;left=0;bottom=0;right=0;collapsible=0;dropTarget=0;fillColor=none;points=[[0,0.5],[1,0.5]];portConstraint=eastwest;fontSize=16;" parent="gshfcQeMo9viiWqzpoU_-25" vertex="1">
          <mxGeometry y="57" width="140" height="18" as="geometry" />
        </mxCell>
        <mxCell id="gshfcQeMo9viiWqzpoU_-33" value="\(k\): VAE latent dimension" style="shape=partialRectangle;html=1;whiteSpace=wrap;connectable=0;strokeColor=inherit;overflow=hidden;fillColor=none;top=0;left=0;bottom=0;right=0;pointerEvents=1;fontSize=12;align=left;spacingLeft=5;" parent="gshfcQeMo9viiWqzpoU_-32" vertex="1">
          <mxGeometry width="140" height="18" as="geometry">
            <mxRectangle width="140" height="18" as="alternateBounds" />
          </mxGeometry>
        </mxCell>
        <mxCell id="gshfcQeMo9viiWqzpoU_-48" style="shape=tableRow;horizontal=0;startSize=0;swimlaneHead=0;swimlaneBody=0;strokeColor=inherit;top=0;left=0;bottom=0;right=0;collapsible=0;dropTarget=0;fillColor=none;points=[[0,0.5],[1,0.5]];portConstraint=eastwest;fontSize=16;" parent="gshfcQeMo9viiWqzpoU_-25" vertex="1">
          <mxGeometry y="75" width="140" height="18" as="geometry" />
        </mxCell>
        <mxCell id="gshfcQeMo9viiWqzpoU_-49" value="\(T\): # time points" style="shape=partialRectangle;html=1;whiteSpace=wrap;connectable=0;strokeColor=inherit;overflow=hidden;fillColor=none;top=0;left=0;bottom=0;right=0;pointerEvents=1;fontSize=12;align=left;spacingLeft=5;" parent="gshfcQeMo9viiWqzpoU_-48" vertex="1">
          <mxGeometry width="140" height="18" as="geometry">
            <mxRectangle width="140" height="18" as="alternateBounds" />
          </mxGeometry>
        </mxCell>
        <mxCell id="gshfcQeMo9viiWqzpoU_-34" value="Notation" style="text;html=1;align=center;verticalAlign=middle;whiteSpace=wrap;rounded=0;fillColor=#ffe6cc;strokeColor=#d79b00;" parent="1" vertex="1">
          <mxGeometry x="12.5" y="49" width="140" height="30" as="geometry" />
        </mxCell>
        <mxCell id="gshfcQeMo9viiWqzpoU_-36" value="$$(n * M&amp;nbsp;\times&amp;nbsp;p)$$" style="text;html=1;align=center;verticalAlign=middle;whiteSpace=wrap;rounded=0;fillColor=none;strokeColor=#b85450;gradientColor=none;fillStyle=auto;shadow=0;fontSize=10;" parent="1" vertex="1">
          <mxGeometry x="415" y="247.25" width="80" height="25.5" as="geometry" />
        </mxCell>
        <mxCell id="SKo15fLE6GQcyllnIHAm-4" value="" style="edgeStyle=orthogonalEdgeStyle;rounded=0;orthogonalLoop=1;jettySize=auto;html=1;entryX=0.5;entryY=0;entryDx=0;entryDy=0;" parent="1" source="gshfcQeMo9viiWqzpoU_-37" target="ZXvm5cAhcbiVR249xv_J-1" edge="1">
          <mxGeometry relative="1" as="geometry">
            <mxPoint x="380" y="314" as="targetPoint" />
          </mxGeometry>
        </mxCell>
        <mxCell id="gshfcQeMo9viiWqzpoU_-37" value="$$X_{flat}$$" style="rounded=1;whiteSpace=wrap;html=1;fontSize=15;" parent="1" vertex="1">
          <mxGeometry x="345" y="240" width="70" height="40" as="geometry" />
        </mxCell>
        <mxCell id="gshfcQeMo9viiWqzpoU_-38" value="$$(n * M&amp;nbsp;\times&amp;nbsp;p)$$" style="text;html=1;align=center;verticalAlign=middle;whiteSpace=wrap;rounded=0;fillColor=none;strokeColor=#b85450;gradientColor=none;fillStyle=auto;shadow=0;fontSize=10;" parent="1" vertex="1">
          <mxGeometry x="266" y="464.25" width="80" height="25.5" as="geometry" />
        </mxCell>
        <mxCell id="gshfcQeMo9viiWqzpoU_-39" value="$$\hat{X}$$" style="rounded=1;whiteSpace=wrap;html=1;fontSize=15;fillColor=#f8cecc;strokeColor=#b85450;" parent="1" vertex="1">
          <mxGeometry x="541" y="458" width="70" height="40" as="geometry" />
        </mxCell>
        <mxCell id="gshfcQeMo9viiWqzpoU_-41" value="Output" style="text;html=1;align=center;verticalAlign=middle;whiteSpace=wrap;rounded=0;" parent="1" vertex="1">
          <mxGeometry x="548" y="434" width="60" height="30" as="geometry" />
        </mxCell>
        <mxCell id="gshfcQeMo9viiWqzpoU_-42" value="$$(n \times M&amp;nbsp;\times&amp;nbsp;p)$$" style="text;html=1;align=center;verticalAlign=middle;whiteSpace=wrap;rounded=0;fillColor=none;strokeColor=#b85450;gradientColor=none;fillStyle=auto;shadow=0;fontSize=10;" parent="1" vertex="1">
          <mxGeometry x="611" y="464.25" width="80" height="25.5" as="geometry" />
        </mxCell>
        <mxCell id="SKo15fLE6GQcyllnIHAm-9" value="" style="edgeStyle=orthogonalEdgeStyle;rounded=0;orthogonalLoop=1;jettySize=auto;html=1;entryX=0;entryY=0.5;entryDx=0;entryDy=0;" parent="1" source="gshfcQeMo9viiWqzpoU_-52" target="ZXvm5cAhcbiVR249xv_J-4" edge="1">
          <mxGeometry relative="1" as="geometry">
            <mxPoint x="348" y="579" as="targetPoint" />
          </mxGeometry>
        </mxCell>
        <mxCell id="gshfcQeMo9viiWqzpoU_-52" value="$$y_0$$" style="rounded=0;whiteSpace=wrap;html=1;fillColor=#dae8fc;strokeColor=#6c8ebf;" parent="1" vertex="1">
          <mxGeometry x="177" y="585" width="90" height="41" as="geometry" />
        </mxCell>
        <mxCell id="gshfcQeMo9viiWqzpoU_-53" value="$$(n * M \times 1)$$" style="text;html=1;align=center;verticalAlign=middle;whiteSpace=wrap;rounded=0;fillColor=none;strokeColor=#b85450;gradientColor=none;fillStyle=auto;shadow=0;fontSize=10;" parent="1" vertex="1">
          <mxGeometry x="102" y="592.75" width="75" height="25.5" as="geometry" />
        </mxCell>
        <mxCell id="ZXvm5cAhcbiVR249xv_J-7" value="" style="edgeStyle=orthogonalEdgeStyle;rounded=0;orthogonalLoop=1;jettySize=auto;html=1;" edge="1" parent="1" source="kir_VGYGd0OHTudOm7uo-4" target="ZXvm5cAhcbiVR249xv_J-6">
          <mxGeometry relative="1" as="geometry" />
        </mxCell>
        <mxCell id="kir_VGYGd0OHTudOm7uo-4" value="&lt;div&gt;$$h_{ta}$$&lt;/div&gt;" style="rounded=1;whiteSpace=wrap;html=1;fontSize=15;" parent="1" vertex="1">
          <mxGeometry x="346" y="700" width="70" height="40" as="geometry" />
        </mxCell>
        <mxCell id="SKo15fLE6GQcyllnIHAm-63" value="" style="edgeStyle=orthogonalEdgeStyle;rounded=0;orthogonalLoop=1;jettySize=auto;html=1;" parent="1" source="kir_VGYGd0OHTudOm7uo-48" target="kir_VGYGd0OHTudOm7uo-50" edge="1">
          <mxGeometry relative="1" as="geometry" />
        </mxCell>
        <mxCell id="kir_VGYGd0OHTudOm7uo-48" value="$$f_{W_o}$$" style="ellipse;whiteSpace=wrap;html=1;" parent="1" vertex="1">
          <mxGeometry x="356" y="976" width="50" height="40" as="geometry" />
        </mxCell>
        <mxCell id="kir_VGYGd0OHTudOm7uo-50" value="$$\hat{y}$$" style="rounded=1;whiteSpace=wrap;html=1;fontSize=15;fillColor=#f8cecc;strokeColor=#b85450;" parent="1" vertex="1">
          <mxGeometry x="336.5" y="1044" width="90" height="45" as="geometry" />
        </mxCell>
        <mxCell id="kir_VGYGd0OHTudOm7uo-52" value="$$(n^* \times T)$$" style="text;html=1;align=center;verticalAlign=middle;whiteSpace=wrap;rounded=0;fillColor=none;strokeColor=#b85450;gradientColor=none;fillStyle=auto;shadow=0;fontSize=10;" parent="1" vertex="1">
          <mxGeometry x="251.5" y="1054" width="85" height="25.5" as="geometry" />
        </mxCell>
        <mxCell id="kir_VGYGd0OHTudOm7uo-53" value="Output layer - FNN" style="text;html=1;align=center;verticalAlign=middle;whiteSpace=wrap;rounded=0;" parent="1" vertex="1">
          <mxGeometry x="250" y="986" width="100" height="30" as="geometry" />
        </mxCell>
        <mxCell id="SKo15fLE6GQcyllnIHAm-3" style="edgeStyle=orthogonalEdgeStyle;rounded=0;orthogonalLoop=1;jettySize=auto;html=1;entryX=0.5;entryY=0;entryDx=0;entryDy=0;" parent="1" source="gshfcQeMo9viiWqzpoU_-35" target="gshfcQeMo9viiWqzpoU_-37" edge="1">
          <mxGeometry relative="1" as="geometry" />
        </mxCell>
        <mxCell id="SKo15fLE6GQcyllnIHAm-5" value="Outcome measured at baseline" style="text;html=1;align=center;verticalAlign=middle;whiteSpace=wrap;rounded=0;" parent="1" vertex="1">
          <mxGeometry x="165.5" y="556" width="115" height="30" as="geometry" />
        </mxCell>
        <mxCell id="SKo15fLE6GQcyllnIHAm-24" value="Inputs" style="rounded=0;whiteSpace=wrap;html=1;fillColor=#dae8fc;strokeColor=#6c8ebf;" parent="1" vertex="1">
          <mxGeometry x="13.5" y="175" width="137.5" height="20" as="geometry" />
        </mxCell>
        <mxCell id="SKo15fLE6GQcyllnIHAm-26" value="&lt;div&gt;Outputs&lt;/div&gt;" style="rounded=0;whiteSpace=wrap;html=1;fillColor=#f8cecc;strokeColor=#b85450;" parent="1" vertex="1">
          <mxGeometry x="13.5" y="196" width="137.5" height="20" as="geometry" />
        </mxCell>
        <mxCell id="SKo15fLE6GQcyllnIHAm-27" value="Stochastic" style="rounded=0;whiteSpace=wrap;html=1;fillColor=#d5e8d4;strokeColor=#82b366;" parent="1" vertex="1">
          <mxGeometry x="13.5" y="217" width="137.5" height="20" as="geometry" />
        </mxCell>
        <mxCell id="SKo15fLE6GQcyllnIHAm-61" value="" style="edgeStyle=orthogonalEdgeStyle;rounded=0;orthogonalLoop=1;jettySize=auto;html=1;entryX=0.5;entryY=0;entryDx=0;entryDy=0;" parent="1" source="SKo15fLE6GQcyllnIHAm-53" target="kir_VGYGd0OHTudOm7uo-48" edge="1">
          <mxGeometry relative="1" as="geometry" />
        </mxCell>
        <mxCell id="SKo15fLE6GQcyllnIHAm-53" value="$$h_{out}$$" style="rounded=1;whiteSpace=wrap;html=1;fontSize=15;" parent="1" vertex="1">
          <mxGeometry x="336" y="909" width="90" height="45" as="geometry" />
        </mxCell>
        <mxCell id="SKo15fLE6GQcyllnIHAm-59" value="$$(n^* \times T \times&amp;nbsp;p&#39;)$$" style="text;html=1;align=center;verticalAlign=middle;whiteSpace=wrap;rounded=0;fillColor=none;strokeColor=#b85450;gradientColor=none;fillStyle=auto;shadow=0;fontSize=10;" parent="1" vertex="1">
          <mxGeometry x="426" y="917" width="85" height="25.5" as="geometry" />
        </mxCell>
        <mxCell id="gshfcQeMo9viiWqzpoU_-35" value="&lt;font style=&quot;font-size: 10px;&quot;&gt;Flatten over first dim&lt;/font&gt;" style="ellipse;whiteSpace=wrap;html=1;" parent="1" vertex="1">
          <mxGeometry x="350" y="171" width="60" height="40" as="geometry" />
        </mxCell>
        <mxCell id="kir_VGYGd0OHTudOm7uo-9" value="$$(n^* \times T \times p&#39;)$$" style="text;html=1;align=center;verticalAlign=middle;whiteSpace=wrap;rounded=0;fillColor=none;strokeColor=#b85450;gradientColor=none;fillStyle=auto;shadow=0;fontSize=10;" parent="1" vertex="1">
          <mxGeometry x="260.5" y="708" width="85" height="22.75" as="geometry" />
        </mxCell>
        <mxCell id="ZXvm5cAhcbiVR249xv_J-1" value="Variational Autoencoder" style="rhombus;whiteSpace=wrap;html=1;aspect=fixed;fillColor=#fff2cc;strokeColor=#d6b656;" vertex="1" parent="1">
          <mxGeometry x="332.5" y="315" width="96" height="96" as="geometry" />
        </mxCell>
        <mxCell id="ZXvm5cAhcbiVR249xv_J-3" value="Module" style="rounded=0;whiteSpace=wrap;html=1;fillColor=#fff2cc;strokeColor=#d6b656;" vertex="1" parent="1">
          <mxGeometry x="13.5" y="237" width="137.5" height="20" as="geometry" />
        </mxCell>
        <mxCell id="ZXvm5cAhcbiVR249xv_J-5" style="edgeStyle=orthogonalEdgeStyle;rounded=0;orthogonalLoop=1;jettySize=auto;html=1;entryX=0.5;entryY=0;entryDx=0;entryDy=0;" edge="1" parent="1" source="ZXvm5cAhcbiVR249xv_J-4" target="kir_VGYGd0OHTudOm7uo-4">
          <mxGeometry relative="1" as="geometry" />
        </mxCell>
        <mxCell id="ZXvm5cAhcbiVR249xv_J-4" value="Time-aware processing" style="rhombus;whiteSpace=wrap;html=1;aspect=fixed;fillColor=#fff2cc;strokeColor=#d6b656;" vertex="1" parent="1">
          <mxGeometry x="333.5" y="558" width="96" height="96" as="geometry" />
        </mxCell>
        <mxCell id="ZXvm5cAhcbiVR249xv_J-8" value="" style="edgeStyle=orthogonalEdgeStyle;rounded=0;orthogonalLoop=1;jettySize=auto;html=1;" edge="1" parent="1" source="ZXvm5cAhcbiVR249xv_J-6" target="SKo15fLE6GQcyllnIHAm-53">
          <mxGeometry relative="1" as="geometry" />
        </mxCell>
        <mxCell id="ZXvm5cAhcbiVR249xv_J-6" value="Transformer" style="rhombus;whiteSpace=wrap;html=1;aspect=fixed;fillColor=#fff2cc;strokeColor=#d6b656;" vertex="1" parent="1">
          <mxGeometry x="333" y="770" width="96" height="96" as="geometry" />
        </mxCell>
      </root>
    </mxGraphModel>
  </diagram>
  <diagram id="ePtbMaemszxgn41MYKDM" name="Page-2">
    <mxGraphModel grid="1" page="1" gridSize="10" guides="1" tooltips="1" connect="1" arrows="1" fold="1" pageScale="1" pageWidth="827" pageHeight="1169" math="0" shadow="0">
      <root>
        <mxCell id="0" />
        <mxCell id="1" parent="0" />
      </root>
    </mxGraphModel>
  </diagram>
</mxfile>
